<svg xmlns="http://www.w3.org/2000/svg" viewBox="0 0 27.38 27.38"><defs><style>.cls-1{fill:none;stroke:#000;stroke-miterlimit:10;}</style></defs><title>fono-compras</title><g id="Capa_2" data-name="Capa 2"><g id="Capa_1-2" data-name="Capa 1"><g id="_Grupo_" data-name="&lt;Grupo&gt;"><path id="_Trazado_compuesto_" data-name="&lt;Trazado compuesto&gt;" d="M19.89,11.52V11.1A4.87,4.87,0,0,0,18.5,7.28,6.35,6.35,0,0,0,14,5.45H13.4A6.35,6.35,0,0,0,8.88,7.28,4.87,4.87,0,0,0,7.5,11.1v.42A2.75,2.75,0,0,0,4.89,14v1.64a2.75,2.75,0,0,0,2.77,2.49H8a.46.46,0,0,0,.46-.46V11.1c0-3,2.15-4.73,5-4.73H14c2.85,0,5,1.72,5,4.73l0,7c0,2.13-1.78,2-2.59,2-.21-.64-.54-.83-1.25-.83H14a1.18,1.18,0,0,0-1.33,1.33A1.18,1.18,0,0,0,14,21.93h1.15c.74,0,1.08-.23,1.27-.91,2.28,0,3.19-.42,3.48-2.89a2.75,2.75,0,0,0,2.62-2.49V14a2.74,2.74,0,0,0-2.6-2.49ZM7.52,17.22h.15a1.84,1.84,0,0,1-1.85-1.58V14a1.84,1.84,0,0,1,1.85-1.58H7.52Zm14.06-1.58a1.84,1.84,0,0,1-1.85,1.58h.15v-4.8h-.15A1.84,1.84,0,0,1,21.57,14Zm0,0"/></g><circle id="_Trazado_" data-name="&lt;Trazado&gt;" class="cls-1" cx="13.69" cy="13.69" r="13.19"/></g></g></svg>