<svg xmlns="http://www.w3.org/2000/svg" viewBox="0 0 27.38 27.38"><defs><style>.cls-1{fill:none;stroke:#000;stroke-miterlimit:10;}</style></defs><title>suscribete</title><g id="Capa_2" data-name="Capa 2"><g id="Capa_1-2" data-name="Capa 1"><g id="_Grupo_" data-name="&lt;Grupo&gt;"><circle id="_Trazado_" data-name="&lt;Trazado&gt;" class="cls-1" cx="13.69" cy="13.69" r="13.19"/><path id="_Trazado_compuesto_" data-name="&lt;Trazado compuesto&gt;" d="M20.33,9.18A6,6,0,0,0,17.9,6.75a7.37,7.37,0,0,0-3.59-.86,8.45,8.45,0,0,0-4.26,1.06,7.14,7.14,0,0,0-2.86,3,9.33,9.33,0,0,0-1,4.39,7.15,7.15,0,0,0,1.88,5.28,7.12,7.12,0,0,0,5.29,1.89,10,10,0,0,0,4.09-.8V19.43a11.41,11.41,0,0,1-4.09.81A5.8,5.8,0,0,1,9,18.69a6.11,6.11,0,0,1-1.51-4.44,8.26,8.26,0,0,1,.82-3.76A5.81,5.81,0,0,1,10.67,8a7.29,7.29,0,0,1,3.64-.88,6,6,0,0,1,2.94.7,4.8,4.8,0,0,1,2,2,6.26,6.26,0,0,1,.69,3,5.69,5.69,0,0,1-.54,2.65,1.58,1.58,0,0,1-1.39,1q-1.25,0-1.25-1.69v-.21L17,10.11a9.26,9.26,0,0,0-1.46-.32,10,10,0,0,0-1.44-.12,3.77,3.77,0,0,0-2.91,1.21A4.46,4.46,0,0,0,10.07,14a4.06,4.06,0,0,0,.79,2.64,2.69,2.69,0,0,0,2.2,1,2.92,2.92,0,0,0,1.65-.47,3,3,0,0,0,1.07-1.29h.08a2,2,0,0,0,2,1.75A2.65,2.65,0,0,0,19.61,17a4,4,0,0,0,1.16-1.74,7,7,0,0,0,.41-2.46,7.47,7.47,0,0,0-.86-3.63Zm-4.9,4.32q-.17,3-2.11,3t-1.83-2.41a3.66,3.66,0,0,1,.69-2.37,2.32,2.32,0,0,1,1.91-.86,5.46,5.46,0,0,1,1.47.19Zm0,0"/></g></g></g></svg>