<svg height="300px" width="300px" fill="#000000" xmlns="http://www.w3.org/2000/svg" xmlns:xlink="http://www.w3.org/1999/xlink" version="1.1" x="0px" y="0px" 
viewBox="0 0 100 100" enable-background="new 0 0 100 100" xml:space="preserve">

<g>
<rect x="-192" width="185" height="99"/><rect y="-36" width="100" height="30"/>
<line fill="#000000" stroke="#000000" stroke-miterlimit="10" x1="8" y1="-14.5" x2="18" y2="-14.5"/>
<line fill="#000000" stroke="#000000" stroke-miterlimit="10" x1="-179" y1="16.5" x2="-162" y2="16.5"/><g>
<g>
<g>
<rect x="-170.802" y="31.318" fill="#000000" width="8.721" height="8.642"/>
<path fill="#000000" d="M-164.455,42.312h4.747v-4.703h-4.747V42.312z M-159.266,42.749h-5.63V37.17h5.63V42.749 L-159.266,42.749z M-166.221,44.062h8.279v-8.203h-8.279V44.062L-166.221,44.062z M-157.5,44.5h-9.163v-9.079h9.163V44.5      L-157.5,44.5z"/>
<polygon fill="#000000" points="-166.149,44.133 -166.292,43.991 -158.013,35.787 -157.871,35.929     "/>
</g>
</g>
</g>
<rect x="-179" y="58" fill="none" width="35" height="32.5"/>
<rect x="-136.5" y="58" fill="none" width="35" height="32.5"/>
<rect x="-94" y="58" fill="none" width="35" height="32.5"/>
<rect x="-50" y="58" fill="none" width="35" height="32.5"/>
<rect x="-126.514" y="34.815" fill="#000000" width="10.261" height="10.185"/>
<rect x="-126.477" y="31.766" fill="#000000" width="0.522" height="2.337"/>
<rect x="-116.812" y="31.766" fill="#000000" width="0.523" height="2.337"/>
<rect x="-127" y="32.337" fill="#000000" width="11.233" height="0.572"/>
<g>
<rect x="-83.805" y="33.844" fill="#000000" width="10.305" height="10.156"/>
<rect x="-76.809" y="28.707" fill="#000000" width="3.308" height="3.261"/>
</g>
<rect x="-178.5" y="22.5" fill="#000000" stroke="#000000" stroke-miterlimit="10" width="30" height="30"/>
<rect x="-136.5" y="22.5" fill="#000000" stroke="#000000" stroke-miterlimit="10" width="30" height="30"/>
<rect x="-93.5" y="22.5" fill="#000000" stroke="#000000" stroke-miterlimit="10" width="30" height="30"/>
<rect x="-49.5" y="22.5" fill="#000000" stroke="#000000" stroke-miterlimit="10" width="30" height="30"/>
</g>
<path fill="#000000" d="M25.275,46.792c0.452-2.19,1.131-4.299,2.023-6.296L10.662,23.638H89.84L74.144,39.554  c0.707,2.222,1.094,4.625,1.094,7.165c0,0.023,0,0.042,0,0.065l23.787-24.012c0.844-0.841,1.094-2.107,0.64-3.205  c-0.457-1.096-1.527-1.818-2.72-1.818H3.553c-1.185,0-2.259,0.723-2.715,1.818c-0.454,1.098-0.203,2.364,0.643,3.205L25.275,46.792z  "/>
<path fill="#000000" d="M99.966,28.991l-5.802,5.798v40.576H6.337V34.862l-5.835-5.829c-0.026,0.157-0.049,0.317-0.049,0.476v48.802  c0,0.777,0.313,1.533,0.863,2.08c0.547,0.545,1.304,0.859,2.081,0.859h93.708c0.774,0,1.533-0.314,2.079-0.859  c0.548-0.547,0.862-1.303,0.862-2.08V29.662C100.046,29.428,100.015,29.203,99.966,28.991z"/>
<path fill="#000000" d="M60.627,39.673c-1.582-0.792-4.259-1.399-6.939-1.399c-8.641,0-14.361,6.817-14.361,14.3  c0,4.871,2.982,7.791,6.756,7.791c3.407,0,6.144-1.641,8.156-4.992h0.179c0.123,3.473,2.252,4.992,4.933,4.992  c6.143,0,11.194-5.479,11.194-14.483c0-10.166-7.362-17.593-18.072-17.593c-13.636,0-22.521,10.774-22.521,23.251  c0,11.869,8.702,19.174,18.747,19.174c4.199,0,7.487-0.611,11.016-2.316l-1.032-3.105c-2.437,1.279-5.726,2.014-9.009,2.014  c-9.008,0-15.581-6.027-15.581-16.189c0-11.995,8.217-19.54,17.833-19.54c9.434,0,14.605,6.207,14.605,14.606  c0,6.998-3.348,10.714-6.209,10.591c-1.824,0-2.373-1.889-1.64-5.965L60.627,39.673z M54.174,48.983  c-0.609,3.591-3.346,7.248-6.206,7.248c-2.252,0-3.41-1.707-3.41-4.205c0-5.17,3.653-9.675,8.278-9.675  c1.034,0,1.826,0.185,2.437,0.367L54.174,48.983z"/>
</svg>